<svg xmlns="http://www.w3.org/2000/svg" xmlns:svg="http://www.w3.org/2000/svg" xmlns:xlink="http://www.w3.org/1999/xlink" id="svg2" width="542.5" height="542.5" version="1.1"><metadata id="metadata7"/><g id="layer2" style="display:none" transform="translate(-132.99994,-260.88684)"><image id="image818" width="599" height="543" x="75.5" y="260.862" xlink:href="file:///home/skadge/Bureau/morse-logo-hires.png"/></g><g id="layer1" style="display:inline" transform="translate(-132.99994,-260.88684)"><path style="fill:#888;fill-opacity:1;stroke:#888;stroke-linejoin:round;stroke-opacity:1" id="path894" d="M 383.07399,462.80918 544.55671,577.40192 542.28417,779.65773 389.17198,655.23632 z"/><path style="fill:#a2a2a2;fill-opacity:1;stroke:none" id="path918" d="m 476.0207,674.76121 0.83471,34.92392 -99.2277,39.36969 -1.60693,-34.54891 z"/><path style="fill:#bfbfbf;fill-opacity:1;stroke:none" id="path916" d="M 476.05195,674.73448 369.19134,717.71976 365.97749,587.96045 z"/><path style="fill:#505050;fill-opacity:1;stroke:none" id="path914" d="m 417.39913,669.11023 -22.49697,-18.88138 -34.14718,13.65887 22.09524,19.28312 z"/><path id="path911" style="fill:#333;fill-opacity:1;stroke:#333;stroke-linejoin:round;stroke-opacity:1" d="m 309.63318,538.76879 39.07063,-13.82272 1.83504,38.97406 -38.94395,14.00574 z m 2.88944,70.28003 63.28167,-25.13919 6.6442,189.24909 -23.30044,8.83809 0.18475,6.02598 -37.14406,14.86407 z"/><path id="path908" style="fill:#505050;fill-opacity:1;stroke:#505050;stroke-linejoin:round;stroke-opacity:1" d="m 350.51042,563.91015 25.15416,19.58782 -38.63313,15.33962 -25.45719,-20.91639 z m -1.80739,-39.02156 -39.53046,13.52484 -156.91629,-87.84519 -18.75639,-14.76128 18.27898,-6.47703 -2.13304,-15.8862 38.36456,-10.68155 z"/><path style="fill:#888;fill-opacity:1;stroke:#888;stroke-linejoin:round;stroke-opacity:1" id="path902" d="m 153.22495,450.34865 -3.6958,-36.95057 160.16561,125.48939 1.92114,39.04975 25.79285,21.29526 8.16066,188.87914 -24.44261,-20.05393 1.10388,34.79898 -148.70659,-136.97486 -3.07688,-35.40317 -20.07353,-17.21259 -16.84662,-177.44161 z"/><path style="fill:#000;fill-opacity:1;stroke:none" id="path900" d="M 153.18032,450.19082 311.62165,577.97006 321.15212,768.06502 170.45307,630.48468 z"/><path style="fill:#505050;fill-opacity:1;stroke:#505050;stroke-linejoin:round;stroke-opacity:1" id="path888" d="M 674.01188,527.93283 544.51594,577.39495 383.05108,462.82106 508.99394,420.8401 z"/><path style="fill:#505050;fill-opacity:1;stroke:#505050;stroke-linejoin:round;stroke-opacity:1" id="path821" d="m 530.0625,261.40625 -130.03125,39.03125 120.32031,74.03516 133.75,-43.87891 z M 513.15625,270 l 24.875,14.40625 0.125,37.875 -33.59375,10.21875 -24.875,-14.28125 0.125,-38.125 z"/><path style="fill:#129204;fill-opacity:1;stroke:#129204;stroke-linejoin:round;stroke-opacity:1" id="path823" d="m 504.19239,294.23552 33.84011,-9.86862 0.12627,38.34947 -33.6032,9.7981 z"/><path id="path828" d="m 479.69619,318.23382 0.11455,-38.14107 24.38165,14.14995 0.371,38.27124 z" style="fill:#67e73d;fill-opacity:1;stroke:#67e73d;stroke-linejoin:round;stroke-opacity:1"/><path style="fill:#2faf17;fill-opacity:1;stroke:#000;stroke-linejoin:round;stroke-opacity:0" id="path830" d="m 504.18585,294.2427 -24.37901,-14.15386 33.35065,-10.0898 24.87501,14.39467 z"/><path id="path855" style="fill:#000;fill-opacity:1;stroke:none" d="m 493.85714,397.28119 0,36.06313 -22,-15 -0.63135,-36.06313 z M 446,366.36218 l 0,36 -22,-15 0,-34.98985 z"/><path style="fill:#888;fill-opacity:1;stroke:#888;stroke-linejoin:round;stroke-opacity:1" id="path857" d="m 400.05492,300.42835 3.88258,143.3529 115.91827,80.68593 0.4997,-149.99843 z M 424,352.375 l 22,14 0,36 -22,-15 z m 47.21875,29.90625 22.625,15 0,36.0625 -22,-15 z"/><path style="fill:#333;fill-opacity:1;stroke:#333;stroke-linejoin:round;stroke-opacity:1" id="path859" d="m 520.35337,374.46384 133.74986,-43.87565 -4.46037,145.52399 -57.56359,20.93632 0.28578,9.28608 -64.73677,23.92617 0.34375,-9.01582 -8.1506,3.26011 z"/><path style="fill:#888;fill-opacity:1;stroke:#888;stroke-linejoin:round;stroke-opacity:1" id="path884" d="m 527.96088,521.25447 -0.27462,9.02706 -7.84339,-5.83603 z"/><path style="fill:#f75876;fill-opacity:1;stroke:none" id="path890" d="m 519.2381,594.58902 0,33.94632 -23.90303,-17.07359 0.60259,-33.54459 z"/><path id="path892" d="m 519.2381,663.15736 0,32.66802 -23.19286,-17.21562 -0.10758,-33.40256 z" style="fill:#67e73d;fill-opacity:1;stroke:none"/><path style="fill:#333;fill-opacity:1;stroke:#333;stroke-linejoin:round;stroke-opacity:1" id="path896" d="m 544.50701,577.37349 129.48493,-49.45893 -8.7067,198.05448 -123.12044,53.68869 z"/><path style="fill:#67e73d;fill-opacity:1;stroke:none" id="path898" d="m 311.62534,577.93728 1.98058,39.99265 -25.49783,-21.13151 -0.92019,-38.5649 z"/></g></svg>