<svg xmlns="http://www.w3.org/2000/svg" xmlns:svg="http://www.w3.org/2000/svg" xmlns:xlink="http://www.w3.org/1999/xlink" id="svg1306" width="48" height="48"><defs id="defs1308"><linearGradient id="linearGradient3315"><stop style="stop-color:#f5a87f;stop-opacity:0" id="stop3317" offset="0"/><stop style="stop-color:#f5a87f;stop-opacity:1" id="stop3319" offset="1"/></linearGradient><linearGradient id="linearGradient3307"><stop id="stop3309" offset="0" style="stop-color:#fff;stop-opacity:1"/><stop id="stop3311" offset="1" style="stop-color:#e0e0e0;stop-opacity:1"/></linearGradient><linearGradient id="linearGradient3287"><stop style="stop-color:#fff;stop-opacity:1" id="stop3289" offset="0"/><stop style="stop-color:#f1f1f1;stop-opacity:1" id="stop3291" offset="1"/></linearGradient><linearGradient id="linearGradient3261"><stop style="stop-color:#fed08e;stop-opacity:1" id="stop3263" offset="0"/><stop style="stop-color:#efb332;stop-opacity:1" id="stop3265" offset="1"/></linearGradient><linearGradient id="linearGradient2223"><stop style="stop-color:#fff;stop-opacity:1" id="stop2225" offset="0"/><stop style="stop-color:#fff;stop-opacity:0" id="stop2229" offset="1"/></linearGradient><linearGradient id="linearGradient2222"><stop style="stop-color:#5187d6;stop-opacity:1" id="stop2224" offset="0"/><stop style="stop-color:#1e4580;stop-opacity:1" id="stop2227" offset="1"/></linearGradient><linearGradient id="linearGradient3090"><stop style="stop-color:#626c07;stop-opacity:1" id="stop3092" offset="0"/><stop style="stop-color:#313603;stop-opacity:1" id="stop3094" offset="1"/></linearGradient><linearGradient id="linearGradient2238"><stop style="stop-color:#fff;stop-opacity:1" id="stop2240" offset="0"/><stop style="stop-color:#fff;stop-opacity:0" id="stop2242" offset="1"/></linearGradient><linearGradient id="linearGradient2224"><stop style="stop-color:#32342f;stop-opacity:.546392" id="stop2226" offset="0"/><stop style="stop-color:#32342f;stop-opacity:0" id="stop2228" offset="1"/></linearGradient><linearGradient id="linearGradient2214"><stop style="stop-color:#a9aaa7;stop-opacity:1" id="stop2216" offset="0"/><stop style="stop-color:#676964;stop-opacity:1" id="stop2218" offset="1"/></linearGradient><linearGradient id="linearGradient2206"><stop style="stop-color:#c3c6c0;stop-opacity:1" id="stop2208" offset="0"/><stop style="stop-color:#e8eae6;stop-opacity:1" id="stop2210" offset="1"/></linearGradient><linearGradient id="linearGradient2198"><stop style="stop-color:#32342f;stop-opacity:1" id="stop2200" offset="0"/><stop style="stop-color:#171816;stop-opacity:1" id="stop2202" offset="1"/></linearGradient><linearGradient id="linearGradient2180"><stop style="stop-color:#fff;stop-opacity:1" id="stop2182" offset="0"/><stop style="stop-color:#fff;stop-opacity:0" id="stop2184" offset="1"/></linearGradient><linearGradient id="linearGradient2212" x1="25.861" x2="18.3" y1="26.134" y2="19.568" gradientTransform="matrix(0.952387, 0, 0, 1.01834, 1.1426, -1.94163)" gradientUnits="userSpaceOnUse" xlink:href="#linearGradient2206"/><linearGradient id="linearGradient2220" x1=".001" x2="47.999" y1="24.012" y2="24.012" gradientTransform="matrix(0.952387, 0, 0, 1.01834, 1.1426, -1.94163)" gradientUnits="userSpaceOnUse" xlink:href="#linearGradient2214"/><radialGradient id="radialGradient2230" cx="24.042" cy="42.242" r="17.577" fx="24.042" fy="42.242" gradientTransform="matrix(1, 0, 0, 0.304598, -5.75792e-16, 29.3753)" gradientUnits="userSpaceOnUse" xlink:href="#linearGradient2224"/><linearGradient id="linearGradient2244" x1="20.339" x2="46.092" y1="19.637" y2="39.708" gradientTransform="matrix(0.952387, 0, 0, 1.01566, 1.1426, -0.876325)" gradientUnits="userSpaceOnUse" xlink:href="#linearGradient2238"/><linearGradient id="linearGradient1340" x1="8.821" x2="12.499" y1="12.538" y2="24.238" gradientTransform="matrix(3.80955, 0, 0, 1.75032, -16.0004, -15.7872)" gradientUnits="userSpaceOnUse" xlink:href="#linearGradient2180"/><radialGradient id="radialGradient2229" cx="23.994" cy="32.267" r="19.089" fx="23.994" fy="32.267" gradientTransform="matrix(1.76863, -1.96126e-23, 1.55206e-23, 1.3871, -18.4425, -15.2927)" gradientUnits="userSpaceOnUse" xlink:href="#linearGradient2222"/><linearGradient id="linearGradient2231" x1="35.694" x2="15.044" y1="37.334" y2="5.959" gradientUnits="userSpaceOnUse" xlink:href="#linearGradient2223"/><linearGradient id="linearGradient3267" x1="11.286" x2="37.068" y1="24.351" y2="29.566" gradientUnits="userSpaceOnUse" xlink:href="#linearGradient3261"/><linearGradient id="linearGradient3285" x1="13.541" x2="34.812" y1="13.525" y2="13.525" gradientUnits="userSpaceOnUse" xlink:href="#linearGradient3261"/><radialGradient id="radialGradient3293" cx="24.177" cy="33.528" r="12.891" fx="24.177" fy="33.528" gradientTransform="matrix(1,2.7191622e-8,-2.1978178e-8,0.8082702,7.3687932e-7,2.4667427)" gradientUnits="userSpaceOnUse" xlink:href="#linearGradient3287"/><radialGradient id="radialGradient3305" cx="24.083" cy="20.261" r="8.951" fx="24.083" fy="20.261" gradientTransform="matrix(1,4.5029745e-8,-3.1651959e-8,0.7029122,6.4129052e-7,2.2889672)" gradientUnits="userSpaceOnUse" xlink:href="#linearGradient3307"/><linearGradient id="linearGradient3321" x1="116.959" x2="203.672" y1="670.777" y2="670.777" gradientUnits="userSpaceOnUse" xlink:href="#linearGradient3315"/></defs><metadata id="metadata1311"/><g id="layer1"><path style="opacity:1;fill:url(#radialGradient2230) #000;fill-opacity:1;fill-rule:evenodd;stroke:none;stroke-width:1.07685995;stroke-linecap:round;stroke-linejoin:round;stroke-miterlimit:4;stroke-dasharray:none;stroke-dashoffset:0;stroke-opacity:1" id="path2222" d="M 41.618284,42.24213 A 17.576654,5.3538084 0 1 1 6.4649754,42.24213 A 17.576654,5.3538084 0 1 1 41.618284,42.24213 z" transform="matrix(1.12671,0,0,1.00211,-2.89187,-0.821244)"/><rect style="opacity:1;fill:url(#linearGradient2212) #000;fill-opacity:1;fill-rule:evenodd;stroke:url(#linearGradient2220) #000;stroke-width:1;stroke-linecap:round;stroke-linejoin:round;stroke-miterlimit:4;stroke-dasharray:none;stroke-dashoffset:0;stroke-opacity:1" id="rect1316" width="44.76" height="41.702" x="1.62" y="1.66" rx="4.566" ry="4.566"/><rect style="opacity:1;fill:url(#radialGradient2229) #000;fill-opacity:1;fill-rule:evenodd;stroke:#173562;stroke-width:1;stroke-linecap:round;stroke-linejoin:round;stroke-miterlimit:4;stroke-dasharray:none;stroke-dashoffset:0;stroke-opacity:1" id="rect1314" width="37.178" height="28.955" x="5.405" y="5.482" rx="1.695" ry="1.695"/><rect style="opacity:1;fill:none;fill-opacity:1;fill-rule:evenodd;stroke:url(#linearGradient2244) #000;stroke-width:1;stroke-linecap:round;stroke-linejoin:round;stroke-miterlimit:4;stroke-dasharray:none;stroke-dashoffset:0;stroke-opacity:1" id="rect2232" width="42.895" height="39.647" x="2.554" y="2.654" rx="4.13" ry="4.13"/><g id="g3126" style="opacity:.07954538;fill:#000;fill-opacity:1;stroke:#000;stroke-opacity:1" transform="translate(0.1875,0.6875)"><path style="opacity:1;fill:#000;fill-opacity:1;fill-rule:nonzero;stroke:#000;stroke-width:1;stroke-linecap:butt;stroke-linejoin:miter;marker:none;stroke-miterlimit:10;stroke-dasharray:none;stroke-dashoffset:0;stroke-opacity:1;visibility:visible;display:inline;overflow:visible" id="path3120" d="M 39.125,37.8125 L 38.0625,37.34375 C 37.805688,37.204184 37.500156,37.125 37.1875,37.125 C 36.187,37.125 35.375,37.937 35.375,38.9375 C 35.375,39.938 36.187,40.75 37.1875,40.75 C 38.156734,40.75 38.951426,39.988481 39,39.03125 C 39.000392,39.02353 38.999705,39.007745 39,39 L 39.125,37.8125 z"/><path id="path3122" d="M 28.992526,37.544659 L 28.893139,38.709836 C 28.855813,38.999729 28.892396,39.313228 29.005385,39.604754 C 29.366952,40.537636 30.417519,41.001313 31.350402,40.639747 C 32.283284,40.27818 32.746961,39.227613 32.385394,38.29473 C 32.035127,37.391001 31.037884,36.925219 30.127792,37.225858 C 30.120452,37.228282 30.105982,37.234627 30.098654,37.237151 L 28.992526,37.544659 z" style="opacity:1;fill:#000;fill-opacity:1;fill-rule:nonzero;stroke:#000;stroke-width:1;stroke-linecap:butt;stroke-linejoin:miter;marker:none;stroke-miterlimit:10;stroke-dasharray:none;stroke-dashoffset:0;stroke-opacity:1;visibility:visible;display:inline;overflow:visible"/><path style="opacity:1;fill:#000;fill-opacity:1;fill-rule:nonzero;stroke:#000;stroke-width:1;stroke-linecap:butt;stroke-linejoin:miter;marker:none;stroke-miterlimit:10;stroke-dasharray:none;stroke-dashoffset:0;stroke-opacity:1;visibility:visible;display:inline;overflow:visible" id="path3124" d="M 25.5,37.8125 L 24.5625,37.34375 C 24.305688,37.204184 24.000156,37.125 23.6875,37.125 C 22.687,37.125 21.875,37.937 21.875,38.9375 C 21.875,39.938 22.687,40.75 23.6875,40.75 C 24.656734,40.75 25.451426,39.988481 25.5,39.03125 C 25.500392,39.02353 25.499705,39.007745 25.5,39 L 25.5,37.8125 z"/></g><path style="opacity:1;fill:#e0e2df;fill-opacity:1;fill-rule:nonzero;stroke:#9b9d99;stroke-width:1;stroke-linecap:butt;stroke-linejoin:miter;marker:none;stroke-miterlimit:10;stroke-dasharray:none;stroke-dashoffset:0;stroke-opacity:1;visibility:visible;display:inline;overflow:visible" id="path3111" d="M 39.125,37.8125 L 38.0625,37.34375 C 37.805688,37.204184 37.500156,37.125 37.1875,37.125 C 36.187,37.125 35.375,37.937 35.375,38.9375 C 35.375,39.938 36.187,40.75 37.1875,40.75 C 38.156734,40.75 38.951426,39.988481 39,39.03125 C 39.000392,39.02353 38.999705,39.007745 39,39 L 39.125,37.8125 z"/><path id="path3116" d="M 28.992526,37.544659 L 28.893139,38.709836 C 28.855813,38.999729 28.892396,39.313228 29.005385,39.604754 C 29.366952,40.537636 30.417519,41.001313 31.350402,40.639747 C 32.283284,40.27818 32.746961,39.227613 32.385394,38.29473 C 32.035127,37.391001 31.037884,36.925219 30.127792,37.225858 C 30.120452,37.228282 30.105982,37.234627 30.098654,37.237151 L 28.992526,37.544659 z" style="opacity:1;fill:#e0e2df;fill-opacity:1;fill-rule:nonzero;stroke:#9b9d99;stroke-width:1;stroke-linecap:butt;stroke-linejoin:miter;marker:none;stroke-miterlimit:10;stroke-dasharray:none;stroke-dashoffset:0;stroke-opacity:1;visibility:visible;display:inline;overflow:visible"/><path style="opacity:1;fill:#e0e2df;fill-opacity:1;fill-rule:nonzero;stroke:#9b9d99;stroke-width:1;stroke-linecap:butt;stroke-linejoin:miter;marker:none;stroke-miterlimit:10;stroke-dasharray:none;stroke-dashoffset:0;stroke-opacity:1;visibility:visible;display:inline;overflow:visible" id="path3118" d="M 25.5,37.8125 L 24.5625,37.34375 C 24.305688,37.204184 24.000156,37.125 23.6875,37.125 C 22.687,37.125 21.875,37.937 21.875,38.9375 C 21.875,39.938 22.687,40.75 23.6875,40.75 C 24.656734,40.75 25.451426,39.988481 25.5,39.03125 C 25.500392,39.02353 25.499705,39.007745 25.5,39 L 25.5,37.8125 z"/><rect id="rect2221" width="39.35" height="30.646" x="4.319" y="4.636" rx="2.57" ry="2.57" style="opacity:.57386397;fill:none;fill-opacity:1;fill-rule:evenodd;stroke:url(#linearGradient2231) #000;stroke-width:1;stroke-linecap:round;stroke-linejoin:round;stroke-miterlimit:4;stroke-dasharray:none;stroke-dashoffset:0;stroke-opacity:1"/></g><g id="layer3"><path style="opacity:1;fill:#fff;fill-opacity:1;stroke:url(#linearGradient3285);stroke-width:1.847;stroke-linecap:round;stroke-linejoin:round;stroke-miterlimit:4;stroke-dasharray:none;stroke-opacity:1" id="path2383" d="M 24.178432,9.1046708 C 19.109401,9.1046708 14.937347,12.98747 14.464961,17.945832 L 33.888765,17.945832 C 33.416379,12.987471 29.247464,9.1046699 24.178432,9.1046708 z"/><path style="opacity:1;fill:url(#radialGradient3305);fill-opacity:1;stroke:#fed08e;stroke-width:.83114432999999999;stroke-linecap:round;stroke-linejoin:round;stroke-miterlimit:4;stroke-dasharray:none;stroke-opacity:1" id="path3269" d="M 24.084491,9.9469636 C 19.62937,9.9469636 15.962591,13.089938 15.547417,17.103538 L 32.618809,17.103538 C 32.203635,13.089939 28.539615,9.9469628 24.084491,9.9469636 z"/><path style="opacity:1;fill:url(#radialGradient3293);fill-opacity:1;stroke:url(#linearGradient3267);stroke-width:1.84662937999999999;stroke-linecap:round;stroke-linejoin:round;stroke-miterlimit:4;stroke-dasharray:none;stroke-opacity:1" id="path2385" d="M 12.239924,17.948648 C 12.220713,18.225735 12.208959,18.505574 12.208959,18.787513 C 12.208959,25.393686 17.572098,30.75401 24.178271,30.75401 C 30.784443,30.75401 36.144769,25.393685 36.144767,18.787513 C 36.144767,18.505574 36.135828,18.225735 36.116617,17.948648 L 12.239924,17.948648 z"/><g id="g2399" transform="matrix(9.0079483e-2,0,0,9.0079483e-2,4.13543,-23.119151)" style="stroke:#ee702c;stroke-width:20.5;stroke-linejoin:round;stroke-miterlimit:4;stroke-dasharray:none;stroke-opacity:1"><path id="path2393" d="M 170.71579,303.33408 A 14.647212,14.647212 0 1 1 141.42136,303.33408 A 14.647212,14.647212 0 1 1 170.71579,303.33408 z" transform="translate(28.284271,110.35916)" style="opacity:1;fill:none;fill-opacity:1;stroke:#ee702c;stroke-width:20.5;stroke-linecap:round;stroke-linejoin:round;stroke-miterlimit:4;stroke-dasharray:none;stroke-opacity:1"/><path id="path2395" d="M 170.71579,303.33408 A 14.647212,14.647212 0 1 1 141.42136,303.33408 A 14.647212,14.647212 0 1 1 170.71579,303.33408 z" transform="translate(104.55078,110.35916)" style="opacity:1;fill:none;fill-opacity:1;stroke:#ee702c;stroke-width:20.5;stroke-linecap:round;stroke-linejoin:round;stroke-miterlimit:4;stroke-dasharray:none;stroke-opacity:1"/></g><path style="fill:none;fill-opacity:1;stroke:#ee702c;stroke-width:12.17276287;stroke-linecap:round;stroke-linejoin:round;stroke-miterlimit:4;stroke-dasharray:none;stroke-opacity:1" id="path2397" d="M 202.03051,646.78595 A 47.982246,47.982246 0 0 1 118.60061,679.12416" transform="matrix(0.1559866,4.9838122e-2,-6.0662632e-2,0.1281527,39.386377,-70.130621)"/><path style="opacity:1;fill:none;fill-opacity:1;stroke:#fed08e;stroke-width:.89999998;stroke-linecap:round;stroke-linejoin:round;stroke-miterlimit:4;stroke-dasharray:none;stroke-opacity:1" id="path3259" d="M 13.563807,18.658746 C 13.546727,18.905103 13.536276,19.153906 13.536276,19.404576 C 13.536276,25.278082 18.304609,30.043912 24.178115,30.043912 C 30.05162,30.043912 34.817451,25.278081 34.81745,19.404576 C 34.81745,19.153906 34.809502,18.905103 34.792422,18.658746 L 13.563807,18.658746 z"/><path style="fill:none;fill-opacity:1;stroke:url(#linearGradient3321);stroke-width:3.28237772999999988;stroke-linecap:round;stroke-linejoin:round;stroke-miterlimit:4;stroke-dasharray:none;stroke-opacity:1" id="path3313" d="M 202.03051,646.78595 A 47.982246,47.982246 0 0 1 118.60061,679.12416" transform="matrix(0.1387752,4.4339034e-2,-5.3969178e-2,0.1140125,37.696908,-60.13996)"/></g><g id="layer2"><path style="opacity:.43181799;fill:url(#linearGradient1340) #000;fill-opacity:1;fill-rule:evenodd;stroke:none;stroke-width:1;stroke-linecap:round;stroke-linejoin:round;stroke-miterlimit:4;stroke-dasharray:none;stroke-dashoffset:0;stroke-opacity:1" id="rect2178" d="M 6.84375,6.96875 L 6.84375,15.795073 C 10.513653,16.483179 14.582567,16.875 18.875,16.875 C 27.810295,16.875 35.812258,15.21019 41.15625,12.596829 L 41.15625,6.96875 L 6.84375,6.96875 z"/></g></svg>